<svg width="1123" height="2246" viewBox="0 0 1123 2246" fill="none" xmlns="http://www.w3.org/2000/svg">
<path d="M4 30.5001C4 30.5001 948 30.1975 984.5 30.4994C1021 30.8012 1092.5 19.9981 1092.5 110.499C1092.5 201 1092.5 231.5 1092.5 318.5C1092.5 353.294 1064.29 381.5 1029.5 381.5C853 381.5 411.498 381.5 94.5 381.5C59.1538 381.5 30.4997 410.154 30.5 445.5C30.5016 635 30.5012 841 30.5 1070.5C30.4998 1105.85 59.1538 1134.5 94.5 1134.5C412.999 1134.5 713.5 1134.5 1029.5 1134.5C1064.29 1134.5 1092.5 1162.71 1092.5 1197.5C1092.5 1393 1092.5 1569.5 1092.5 1762C1092.5 1796.79 1064.29 1825 1029.5 1825C695.5 1825 94.5 1825 94.5 1825C94.5 1825 30.5 1825 30.5 1889C30.5 1953 30.5 2045 30.5 2151.5C30.5 2186.85 59.1538 2215.5 94.5 2215.5C306 2215.5 575.5 2215.5 575.5 2215.5" stroke="#003B73" stroke-width="60"/>
</svg>
