<?xml version="1.0" encoding="UTF-8"?>
<svg width="30px" height="26px" viewBox="0 0 30 26" version="1.1" xmlns="http://www.w3.org/2000/svg" xmlns:xlink="http://www.w3.org/1999/xlink">
    <title>2AD64429-02A1-47C7-AAED-DBA2E93B6413@1.5x</title>
    <g id="Teaser" stroke="none" stroke-width="1" fill="none" fill-rule="evenodd">
        <g id="Properties-Detail_3_5" transform="translate(-895.000000, -5498.000000)" fill="#000000" fill-rule="nonzero">
            <g id="Group-5-Copy" transform="translate(109.000000, 5329.000000)">
                <g id="Group-4" transform="translate(0.000000, 140.000000)">
                    <g id="Group-32" transform="translate(361.000000, 0.000000)">
                        <g id="Nav-2" transform="translate(0.000000, 29.000000)">
                            <g id="noun-3d-3659162" transform="translate(425.833333, 0.000000)">
                                <path d="M5.70650988,15.9845098 C5.71205665,16.0036625 5.71575432,16.0222462 5.72499877,16.0396915 C5.73383248,16.0567582 5.74718585,16.0711704 5.7595116,16.0869098 C5.77368645,16.1051144 5.7876562,16.1235088 5.80552872,16.1383001 C5.80963739,16.1420927 5.81189696,16.1472126 5.81662227,16.1506263 L13.2524625,21.7265659 C13.2684865,21.7385125 13.2869753,21.7443914 13.3044371,21.7533038 C13.3182012,21.7605099 13.3307326,21.7690433 13.3459346,21.7745425 C13.3859942,21.7889547 13.4279029,21.7978672 13.4702229,21.7978672 C13.5125423,21.7978672 13.5544526,21.7889547 13.5949214,21.7745425 C13.6097126,21.7690433 13.6216276,21.7608891 13.6353917,21.753683 C13.6532642,21.7447705 13.6721644,21.7383227 13.6883929,21.7265659 L21.1221295,16.1511118 C21.126649,16.1476984 21.1291141,16.1421993 21.1332231,16.1387856 C21.1510956,16.1239942 21.164449,16.1056003 21.1792402,16.0873953 C21.1915665,16.0716559 21.2049193,16.0572441 21.213753,16.040177 C21.2229975,16.0227307 21.2260793,16.003578 21.2322419,15.9849953 C21.2386102,15.9629983 21.245184,15.9421388 21.246006,15.919954 C21.2464169,15.9144547 21.2497039,15.9100929 21.2497039,15.9042146 L21.2497039,5.89509711 C21.2497039,5.84844776 21.2377888,5.80464222 21.2178616,5.76463099 C21.2119041,5.75268442 21.2022484,5.74377146 21.194853,5.73277299 C21.1769805,5.70565594 21.1576696,5.68043605 21.1317859,5.65919738 C21.1276772,5.65578405 21.1262391,5.65066405 21.1221307,5.64781977 L13.6873423,0.0713946978 C13.5603824,-0.0237982326 13.3789855,-0.0237982326 13.2520309,0.0713946978 L5.81619065,5.64781977 C5.81208198,5.6512331 5.81023314,5.6563531 5.80612421,5.65976634 C5.78085582,5.68062587 5.76195619,5.70565691 5.74449283,5.73201665 C5.73709748,5.74301513 5.7266203,5.75249704 5.72107353,5.76425379 C5.70135191,5.80426599 5.68923127,5.84788318 5.68923127,5.89471991 L5.68923127,15.9033519 C5.68923127,15.9092303 5.6925182,15.9135921 5.6929291,15.9190913 C5.69313452,15.9420369 5.70011934,15.9632755 5.70648758,15.9845161 L5.70650988,15.9845098 Z M20.5597835,15.7520204 L13.814463,20.8104647 L13.814463,11.6232231 L20.5597835,6.56477881 L20.5597835,15.7520204 Z M13.1244692,20.8104647 L6.37862275,15.751535 L6.37862275,6.56429336 L13.1244692,11.6227376 L13.1244692,20.8104647 Z M13.4695976,0.729120612 L20.3574397,5.89533595 L13.4695976,11.0615513 L6.58122954,5.89533595 L13.4695976,0.729120612 Z" id="Shape"></path>
                                <path d="M28.3216879,15.8772242 L24.8607274,14.4011488 C24.8514829,14.3973561 24.8418272,14.3981147 24.832172,14.3947015 C24.8270362,14.3929948 24.8225169,14.3929948 24.8179972,14.3912881 C24.8019732,14.3865473 24.7857442,14.3831339 24.7697202,14.3810479 C24.7619136,14.3797205 24.7563669,14.3751695 24.7485608,14.3742214 C24.7458902,14.3738422 24.743425,14.37498 24.7407542,14.3746007 C24.7315097,14.3738422 24.7237031,14.3738422 24.7144587,14.3738422 C24.6965862,14.3734629 24.6795351,14.3768763 24.6614575,14.3789623 C24.6347512,14.3814275 24.6098936,14.3848407 24.5854477,14.3929949 C24.5712729,14.398115 24.5587415,14.4049414 24.5449774,14.4117684 C24.5186819,14.4244737 24.4948518,14.4381272 24.4732801,14.4563317 C24.4681442,14.4605036 24.4617758,14.461831 24.4572561,14.4661923 C24.4484224,14.4747256 24.4453411,14.4849658 24.4379452,14.4938783 C24.4223326,14.5120829 24.4079521,14.5304773 24.3964478,14.5520941 C24.3863813,14.5725745 24.3798075,14.5924854 24.37385,14.6141013 C24.370563,14.6260479 24.3631677,14.6360983 24.3615242,14.6484245 L23.8654018,18.1380228 C23.8401334,18.3126751 23.9734606,18.4723413 24.1626619,18.4952888 C24.1778639,18.4973747 24.1930658,18.4983229 24.2082683,18.4983229 C24.3789839,18.4983229 24.5271012,18.3818913 24.5496995,18.2214629 L24.949065,15.4098028 C25.7995665,16.3467801 26.248641,17.3781785 26.248641,18.4249172 C26.248641,22.2300615 20.5162229,25.3256643 13.4700819,25.3256643 C6.42394093,25.3252851 0.690471068,22.229576 0.690471068,18.4244317 C0.690471068,17.1922005 1.30799449,15.9795332 2.47630336,14.9179881 C2.6120933,14.7947261 2.6139445,14.5929612 2.48041203,14.4672331 C2.34687824,14.3428352 2.12829956,14.3398011 1.99209416,14.4638197 C0.688836803,15.6476996 0,17.0172175 0,18.424067 C0,22.5803897 6.04217898,25.962217 13.4690788,25.962217 C20.8965044,25.962217 26.9381575,22.5814577 26.9381575,18.4245525 C26.9381575,17.4331556 26.589332,16.4620509 25.931303,15.5597836 L28.0314716,16.4552059 C28.0783102,16.4751174 28.1276132,16.4845988 28.1758917,16.4845988 C28.3061386,16.4845988 28.4312473,16.4161399 28.4891763,16.2993296 C28.569914,16.14061 28.4943121,15.9511659 28.3213374,15.8772117 L28.3216879,15.8772242 Z" id="Path"></path>
                            </g>
                        </g>
                    </g>
                </g>
            </g>
        </g>
    </g>
</svg>