<?xml version="1.0" encoding="UTF-8"?>
<svg width="34px" height="25px" viewBox="0 0 34 25" version="1.1" xmlns="http://www.w3.org/2000/svg" xmlns:xlink="http://www.w3.org/1999/xlink">
    <title>AB5CAC97-15AD-4A22-A3C2-2867CF122147@1.5x</title>
    <g id="Teaser" stroke="none" stroke-width="1" fill="none" fill-rule="evenodd">
        <g id="Properties-Detail_3_5" transform="translate(-129.000000, -5500.000000)" fill="#FFFFFF" fill-rule="nonzero">
            <g id="Group-5-Copy" transform="translate(109.000000, 5329.000000)">
                <g id="Group-4" transform="translate(0.000000, 140.000000)">
                    <g id="Group-21" transform="translate(20.687500, 29.985589)">
                        <g id="noun-room-2072711" transform="translate(0.000000, 1.013210)">
                            <path d="M33.026493,0.0709873749 C32.9897356,0.035494144 32.9160372,0 32.8792769,0 L16.5499335,2.41499533 L1.58148695,0.213140198 L0.220731981,0 L0.14703171,0 C0.110274255,0 0.0735158549,0.0354932308 0.0735158549,0.0709873749 C0.0367584003,0.106480606 0,0.142152823 0,0.213140198 L0,16.5844808 C0,16.6554682 0.0367574546,16.7264556 0.110271418,16.762125 L0.809019593,17.1172354 L16.439473,24.9657077 C16.4762304,24.9657077 16.5129888,25.001201 16.5497444,25.001201 C16.5864999,25.001201 16.6232602,25.001201 16.6600158,24.9657077 L32.9893592,16.7620018 C33.062875,16.7265085 33.0996306,16.655523 33.0996306,16.5843575 L33.1,0.213016916 C33.1,0.142029542 33.0632425,0.106360064 33.0264841,0.0708640933 L33.026493,0.0709873749 Z M5.00138097,18.6801174 L2.86834778,17.6147817 L1.10287022,16.7267432 L3.19916204,16.3716328 L18.5354952,23.5096378 L16.549664,24.5041551 L5.00138097,18.6801174 Z M21.2574308,14.3474082 L21.2574308,5.43369156 L23.3904639,5.22055136 L23.3904639,14.7383479 L21.2574308,14.3474082 Z M23.6479846,14.773506 L23.6479846,5.18493667 L26.0017498,4.97179648 L26.0017498,15.1639891 L23.6479846,14.773506 Z M26.4800024,15.2352641 L26.4800024,4.72345253 C26.4800024,4.58147778 26.369731,4.47482093 26.2225148,4.47482093 L26.1857574,4.47482093 L20.9629966,4.9721024 C20.8527252,4.9721024 20.7422646,5.07858118 20.7422646,5.18524259 L20.7422646,14.2409614 L16.8069652,13.6017235 L16.8071499,2.91229507 L32.548253,0.497299733 L32.548253,16.2650171 L26.4800024,15.2352641 Z M31.9968833,16.7266976 L30.0476043,17.7210322 L15.3732779,14.3471799 L16.5502787,14.1340397 L31.9968833,16.7266976 Z M5.8476148,15.9455031 L8.20137997,15.5548968 L23.1334162,21.2016509 L21.0371243,22.2669866 L5.8476148,15.9455031 Z M20.8898278,22.3378827 L18.7198168,23.4386961 L3.45677725,16.3363058 L5.58981044,15.9811954 L20.8898278,22.3378827 Z M8.45875876,15.483882 L10.6655111,15.1287716 L25.4504872,20.0294437 L23.3174541,21.0947795 L8.45875876,15.483882 Z M10.959584,15.0576062 L12.835333,14.7379872 L27.6571923,18.8930339 L25.5976419,19.9228919 L10.959584,15.0576062 Z M13.1663364,14.7024958 L15.005344,14.3828768 L29.8636137,17.7922068 L27.8774042,18.8220648 L13.1663364,14.7024958 Z M0.514913616,0.497258639 L16.2928999,2.91225397 L16.2928999,13.6372971 L0.514913616,16.2650673 L0.514913616,0.497258639 Z" id="Shape"></path>
                            <path d="M8.05373543,9.55307792 L8.05373543,6.17922565 C8.05373543,5.96608545 7.86973348,5.7886193 7.64918592,5.7531279 L3.08866837,5.36252154 L3.01515252,5.36252154 C2.79442054,5.32702831 2.5738777,5.5399877 2.5738777,5.7531279 L2.5738777,5.78862113 L2.5738777,9.87266676 C2.5738777,10.1212984 2.79442527,10.2987645 3.01515252,10.2987645 L3.05190997,10.2987645 L7.64921618,9.97914554 C7.86994816,9.97914554 8.05373543,9.76618342 8.05373543,9.55304778 L8.05373543,9.55307792 Z M5.3689366,7.84850425 L3.01517143,7.84850425 L3.01517143,5.7888339 L5.33219523,6.0019741 L5.33219523,7.84850425 L5.3689366,7.84850425 Z M5.3689366,9.73074041 L3.05191281,9.90838464 L3.05191281,7.99067077 L5.3689366,7.99067077 L5.3689366,9.73074041 Z M7.61243035,7.84850425 L5.47939717,7.84850425 L5.47939717,6.00179146 L7.61243035,6.21493166 L7.61243035,7.84850425 Z M7.61243035,9.55307792 L5.47939717,9.69505267 L5.47939717,7.9550013 L7.61243035,7.9550013 L7.61243035,9.55307792 Z" id="Shape"></path>
                        </g>
                    </g>
                </g>
            </g>
        </g>
    </g>
</svg>